<?xml version="1.0" encoding="UTF-8"?>
<svg id="Capa_2" data-name="Capa 2" xmlns="http://www.w3.org/2000/svg" viewBox="0 0 225.68 151.15">
  <defs>
    <style>
      .cls-1 {
        fill: #2b2b2b;
        stroke-width: 0px;
      }
    </style>
  </defs>
  <g id="Logo">
    <g>
      <path class="cls-1" d="m142.62,0h-59.56C37.26,0,0,37.26,0,83.06v46.62c0,11.84,9.63,21.47,21.47,21.47h24.38v-22.41h-23.44v-45.68c0-33.44,27.21-60.65,60.65-60.65h18.57v117.54h22.41V22.41h18.57c33.44,0,60.65,27.21,60.65,60.65v45.68h-23.44v22.41h24.38c11.84,0,21.47-9.63,21.47-21.47v-46.62C225.68,37.26,188.42,0,142.62,0Z"/>
      <path class="cls-1" d="m142.9,106.06c-2.95-2.95-4.43-6.56-4.43-10.83s1.48-7.88,4.43-10.83c2.95-2.95,6.56-4.43,10.83-4.43s7.59,1.48,10.46,4.43c2.87,2.95,4.31,6.56,4.31,10.83s-1.44,7.88-4.31,10.83c-2.87,2.95-6.36,4.43-10.46,4.43s-7.88-1.48-10.83-4.43Z"/>
      <path class="cls-1" d="m61.6,106.06c-2.95-2.95-4.43-6.56-4.43-10.83s1.48-7.88,4.43-10.83c2.95-2.95,6.56-4.43,10.83-4.43s7.59,1.48,10.46,4.43c2.87,2.95,4.31,6.56,4.31,10.83s-1.44,7.88-4.31,10.83c-2.87,2.95-6.36,4.43-10.46,4.43s-7.88-1.48-10.83-4.43Z"/>
    </g>
  </g>
</svg>